<mxfile host="www.draw.io" modified="2019-11-02T13:16:19.846Z" agent="Mozilla/5.0 (Macintosh; Intel Mac OS X 10_15_0) AppleWebKit/537.36 (KHTML, like Gecko) Chrome/78.0.3904.70 Safari/537.36" etag="GrLr1ws3F8xJ7W2Xc4I5" version="12.1.9" type="github" pages="1">
  <diagram id="VXKHc1rD1lcElp5MwoDB" name="Page-1">
    <mxGraphModel dx="908" dy="528" grid="1" gridSize="10" guides="1" tooltips="1" connect="1" arrows="1" fold="1" page="1" pageScale="1" pageWidth="827" pageHeight="1169" math="0" shadow="0">
      <root>
        <mxCell id="0"/>
        <mxCell id="1" parent="0"/>
        <mxCell id="0xlNtEbpLMMX_KmN14da-1" value="feed water tank" style="shape=mxgraph.pid.vessels.tank,_vessel;html=1;pointerEvents=1;align=center;verticalLabelPosition=bottom;verticalAlign=top;dashed=0;" vertex="1" parent="1">
          <mxGeometry x="108" y="235" width="100" height="70" as="geometry"/>
        </mxCell>
        <mxCell id="0xlNtEbpLMMX_KmN14da-8" value="" style="edgeStyle=orthogonalEdgeStyle;rounded=0;orthogonalLoop=1;jettySize=auto;html=1;" edge="1" parent="1" source="0xlNtEbpLMMX_KmN14da-2" target="0xlNtEbpLMMX_KmN14da-7">
          <mxGeometry relative="1" as="geometry"/>
        </mxCell>
        <mxCell id="0xlNtEbpLMMX_KmN14da-2" value="" style="verticalLabelPosition=bottom;align=center;dashed=0;html=1;verticalAlign=top;shape=mxgraph.pid.piping.cone_strainer;rotation=180;" vertex="1" parent="1">
          <mxGeometry x="313" y="260" width="20" height="20" as="geometry"/>
        </mxCell>
        <mxCell id="0xlNtEbpLMMX_KmN14da-3" value="" style="endArrow=classic;html=1;entryX=1;entryY=0.5;entryDx=0;entryDy=0;entryPerimeter=0;exitX=1;exitY=0.5;exitDx=0;exitDy=0;exitPerimeter=0;" edge="1" parent="1" source="0xlNtEbpLMMX_KmN14da-1" target="0xlNtEbpLMMX_KmN14da-2">
          <mxGeometry width="50" height="50" relative="1" as="geometry">
            <mxPoint x="263" y="330" as="sourcePoint"/>
            <mxPoint x="313" y="280" as="targetPoint"/>
          </mxGeometry>
        </mxCell>
        <mxCell id="0xlNtEbpLMMX_KmN14da-14" value="" style="edgeStyle=orthogonalEdgeStyle;rounded=0;orthogonalLoop=1;jettySize=auto;html=1;" edge="1" parent="1" source="0xlNtEbpLMMX_KmN14da-7" target="0xlNtEbpLMMX_KmN14da-11">
          <mxGeometry relative="1" as="geometry"/>
        </mxCell>
        <mxCell id="0xlNtEbpLMMX_KmN14da-7" value="H.P.&amp;nbsp; pre heater" style="shape=mxgraph.pid.heat_exchangers.shell_and_tube_heat_exchanger_1;html=1;pointerEvents=1;align=center;verticalLabelPosition=bottom;verticalAlign=top;dashed=0;" vertex="1" parent="1">
          <mxGeometry x="386" y="247.5" width="45" height="45" as="geometry"/>
        </mxCell>
        <mxCell id="0xlNtEbpLMMX_KmN14da-16" value="" style="edgeStyle=orthogonalEdgeStyle;rounded=0;orthogonalLoop=1;jettySize=auto;html=1;" edge="1" parent="1" source="0xlNtEbpLMMX_KmN14da-11" target="0xlNtEbpLMMX_KmN14da-15">
          <mxGeometry relative="1" as="geometry"/>
        </mxCell>
        <mxCell id="0xlNtEbpLMMX_KmN14da-11" value="steam generator" style="shape=mxgraph.pid.vessels.barrel,_drum;html=1;pointerEvents=1;align=center;verticalLabelPosition=bottom;verticalAlign=top;dashed=0;rotation=0;" vertex="1" parent="1">
          <mxGeometry x="533" y="220" width="62" height="100" as="geometry"/>
        </mxCell>
        <mxCell id="0xlNtEbpLMMX_KmN14da-22" style="edgeStyle=orthogonalEdgeStyle;rounded=0;orthogonalLoop=1;jettySize=auto;html=1;entryX=0;entryY=0.5;entryDx=0;entryDy=0;entryPerimeter=0;" edge="1" parent="1" source="0xlNtEbpLMMX_KmN14da-15" target="0xlNtEbpLMMX_KmN14da-18">
          <mxGeometry relative="1" as="geometry"/>
        </mxCell>
        <mxCell id="0xlNtEbpLMMX_KmN14da-15" value="S.P.&amp;nbsp; heater" style="shape=mxgraph.pid.heat_exchangers.shell_and_tube_heat_exchanger_1;html=1;pointerEvents=1;align=center;verticalLabelPosition=bottom;verticalAlign=top;dashed=0;" vertex="1" parent="1">
          <mxGeometry x="653" y="247.5" width="45" height="45" as="geometry"/>
        </mxCell>
        <mxCell id="0xlNtEbpLMMX_KmN14da-23" style="edgeStyle=orthogonalEdgeStyle;rounded=0;orthogonalLoop=1;jettySize=auto;html=1;exitX=1;exitY=0.5;exitDx=0;exitDy=0;exitPerimeter=0;entryX=0.5;entryY=0;entryDx=0;entryDy=0;entryPerimeter=0;" edge="1" parent="1" source="0xlNtEbpLMMX_KmN14da-18" target="0xlNtEbpLMMX_KmN14da-20">
          <mxGeometry relative="1" as="geometry"/>
        </mxCell>
        <mxCell id="0xlNtEbpLMMX_KmN14da-18" value="High pressure" style="shape=mxgraph.pid.compressors_-_iso.compressor_(turbo);html=1;pointerEvents=1;align=center;verticalLabelPosition=bottom;verticalAlign=top;dashed=0;rotation=90;" vertex="1" parent="1">
          <mxGeometry x="710" y="380" width="40" height="40" as="geometry"/>
        </mxCell>
        <mxCell id="0xlNtEbpLMMX_KmN14da-27" value="" style="edgeStyle=orthogonalEdgeStyle;rounded=0;orthogonalLoop=1;jettySize=auto;html=1;entryX=1;entryY=0.5;entryDx=0;entryDy=0;entryPerimeter=0;" edge="1" parent="1" source="0xlNtEbpLMMX_KmN14da-20" target="0xlNtEbpLMMX_KmN14da-25">
          <mxGeometry relative="1" as="geometry">
            <mxPoint x="625" y="635" as="targetPoint"/>
          </mxGeometry>
        </mxCell>
        <mxCell id="0xlNtEbpLMMX_KmN14da-20" value="Turbines" style="verticalLabelPosition=bottom;align=center;outlineConnect=0;dashed=0;html=1;verticalAlign=top;shape=mxgraph.pid.flow_sensors.turbine;labelBackgroundColor=none;" vertex="1" parent="1">
          <mxGeometry x="705" y="500" width="50" height="50" as="geometry"/>
        </mxCell>
        <mxCell id="0xlNtEbpLMMX_KmN14da-40" style="edgeStyle=orthogonalEdgeStyle;rounded=0;orthogonalLoop=1;jettySize=auto;html=1;exitX=0;exitY=0.5;exitDx=0;exitDy=0;exitPerimeter=0;entryX=1;entryY=0.25;entryDx=0;entryDy=0;" edge="1" parent="1" source="0xlNtEbpLMMX_KmN14da-24" target="0xlNtEbpLMMX_KmN14da-33">
          <mxGeometry relative="1" as="geometry"/>
        </mxCell>
        <mxCell id="0xlNtEbpLMMX_KmN14da-24" value="Medium pressure" style="shape=mxgraph.pid.compressors_-_iso.compressor_(turbo);html=1;pointerEvents=1;align=center;verticalLabelPosition=bottom;verticalAlign=top;dashed=0;rotation=0;" vertex="1" parent="1">
          <mxGeometry x="575" y="410" width="40" height="40" as="geometry"/>
        </mxCell>
        <mxCell id="0xlNtEbpLMMX_KmN14da-36" style="edgeStyle=orthogonalEdgeStyle;rounded=0;orthogonalLoop=1;jettySize=auto;html=1;" edge="1" parent="1" source="0xlNtEbpLMMX_KmN14da-25" target="0xlNtEbpLMMX_KmN14da-33">
          <mxGeometry relative="1" as="geometry"/>
        </mxCell>
        <mxCell id="0xlNtEbpLMMX_KmN14da-25" value="Low pressure" style="shape=mxgraph.pid.compressors_-_iso.compressor_(turbo);html=1;pointerEvents=1;align=center;verticalLabelPosition=bottom;verticalAlign=top;dashed=0;rotation=0;" vertex="1" parent="1">
          <mxGeometry x="575" y="505" width="40" height="40" as="geometry"/>
        </mxCell>
        <mxCell id="0xlNtEbpLMMX_KmN14da-47" value="" style="edgeStyle=orthogonalEdgeStyle;rounded=0;orthogonalLoop=1;jettySize=auto;html=1;" edge="1" parent="1" source="0xlNtEbpLMMX_KmN14da-33" target="0xlNtEbpLMMX_KmN14da-41">
          <mxGeometry relative="1" as="geometry"/>
        </mxCell>
        <mxCell id="0xlNtEbpLMMX_KmN14da-33" value="&lt;span style=&quot;background-color: rgb(248 , 249 , 250)&quot;&gt;Condenser&lt;/span&gt;" style="shape=image;html=1;verticalAlign=top;verticalLabelPosition=bottom;labelBackgroundColor=#ffffff;imageAspect=0;aspect=fixed;image=https://cdn3.iconfinder.com/data/icons/car-parts-18/64/car-condenser-radiator-heat-exchanger-128.png;rotation=0;" vertex="1" parent="1">
          <mxGeometry x="365.5" y="456" width="98" height="98" as="geometry"/>
        </mxCell>
        <mxCell id="0xlNtEbpLMMX_KmN14da-50" value="" style="edgeStyle=orthogonalEdgeStyle;rounded=0;orthogonalLoop=1;jettySize=auto;html=1;" edge="1" parent="1" source="0xlNtEbpLMMX_KmN14da-41" target="0xlNtEbpLMMX_KmN14da-49">
          <mxGeometry relative="1" as="geometry"/>
        </mxCell>
        <mxCell id="0xlNtEbpLMMX_KmN14da-41" value="" style="shape=mxgraph.pid.pumps_-_din.centrifugal;html=1;align=center;verticalLabelPosition=bottom;verticalAlign=top;dashed=0;rotation=-90;" vertex="1" parent="1">
          <mxGeometry x="277" y="491.5" width="27" height="27" as="geometry"/>
        </mxCell>
        <mxCell id="0xlNtEbpLMMX_KmN14da-48" value="condenser pump" style="text;html=1;resizable=0;points=[];autosize=1;align=left;verticalAlign=top;spacingTop=-4;" vertex="1" parent="1">
          <mxGeometry x="240.5" y="525" width="100" height="20" as="geometry"/>
        </mxCell>
        <mxCell id="0xlNtEbpLMMX_KmN14da-94" style="edgeStyle=orthogonalEdgeStyle;rounded=0;orthogonalLoop=1;jettySize=auto;html=1;entryX=-0.032;entryY=0.512;entryDx=0;entryDy=0;entryPerimeter=0;" edge="1" parent="1" source="0xlNtEbpLMMX_KmN14da-49" target="0xlNtEbpLMMX_KmN14da-1">
          <mxGeometry relative="1" as="geometry">
            <Array as="points">
              <mxPoint x="44" y="271"/>
            </Array>
          </mxGeometry>
        </mxCell>
        <mxCell id="0xlNtEbpLMMX_KmN14da-49" value="L.P.&amp;nbsp; pre heater" style="shape=mxgraph.pid.heat_exchangers.shell_and_tube_heat_exchanger_1;html=1;pointerEvents=1;align=center;verticalLabelPosition=bottom;verticalAlign=top;dashed=0;" vertex="1" parent="1">
          <mxGeometry x="80" y="491" width="28" height="28" as="geometry"/>
        </mxCell>
        <mxCell id="0xlNtEbpLMMX_KmN14da-96" value="" style="group" vertex="1" connectable="0" parent="1">
          <mxGeometry x="59.78211009174311" y="610.5" width="213.47935779816515" height="80" as="geometry"/>
        </mxCell>
        <mxCell id="0xlNtEbpLMMX_KmN14da-53" value="" style="shape=mxgraph.pid.vessels.tank;html=1;pointerEvents=1;align=center;verticalLabelPosition=bottom;verticalAlign=top;dashed=0;" vertex="1" parent="0xlNtEbpLMMX_KmN14da-96">
          <mxGeometry y="20.03125" width="22.477064220183486" height="53.4375" as="geometry"/>
        </mxCell>
        <mxCell id="0xlNtEbpLMMX_KmN14da-91" style="edgeStyle=orthogonalEdgeStyle;rounded=0;orthogonalLoop=1;jettySize=auto;html=1;exitX=0.5;exitY=1;exitDx=0;exitDy=0;exitPerimeter=0;entryX=0.5;entryY=0;entryDx=0;entryDy=0;entryPerimeter=0;" edge="1" parent="0xlNtEbpLMMX_KmN14da-96" source="0xlNtEbpLMMX_KmN14da-54" target="0xlNtEbpLMMX_KmN14da-53">
          <mxGeometry relative="1" as="geometry">
            <Array as="points">
              <mxPoint x="50.71788990825689" y="80"/>
              <mxPoint x="29.717889908256893" y="80"/>
              <mxPoint x="29.717889908256893"/>
              <mxPoint x="10.717889908256893"/>
            </Array>
          </mxGeometry>
        </mxCell>
        <mxCell id="0xlNtEbpLMMX_KmN14da-54" value="" style="shape=mxgraph.pid.vessels.tank;html=1;pointerEvents=1;align=center;verticalLabelPosition=bottom;verticalAlign=top;dashed=0;" vertex="1" parent="0xlNtEbpLMMX_KmN14da-96">
          <mxGeometry x="39.83486238532112" y="20.03125" width="22.477064220183486" height="53.4375" as="geometry"/>
        </mxCell>
        <mxCell id="0xlNtEbpLMMX_KmN14da-57" value="" style="shape=mxgraph.pid.vessels.tank;html=1;pointerEvents=1;align=center;verticalLabelPosition=bottom;verticalAlign=top;dashed=0;" vertex="1" parent="0xlNtEbpLMMX_KmN14da-96">
          <mxGeometry x="147.04816513761466" y="20.03125" width="22.477064220183486" height="53.4375" as="geometry"/>
        </mxCell>
        <mxCell id="0xlNtEbpLMMX_KmN14da-77" style="edgeStyle=orthogonalEdgeStyle;rounded=0;orthogonalLoop=1;jettySize=auto;html=1;exitX=0.5;exitY=1;exitDx=0;exitDy=0;exitPerimeter=0;entryX=0.5;entryY=0;entryDx=0;entryDy=0;entryPerimeter=0;" edge="1" parent="0xlNtEbpLMMX_KmN14da-96" source="0xlNtEbpLMMX_KmN14da-58" target="0xlNtEbpLMMX_KmN14da-57">
          <mxGeometry relative="1" as="geometry">
            <Array as="points">
              <mxPoint x="202.7178899082569" y="80"/>
              <mxPoint x="179.7178899082569" y="80"/>
              <mxPoint x="179.7178899082569"/>
              <mxPoint x="158.7178899082569"/>
            </Array>
          </mxGeometry>
        </mxCell>
        <mxCell id="0xlNtEbpLMMX_KmN14da-58" value="" style="shape=mxgraph.pid.vessels.tank;html=1;pointerEvents=1;align=center;verticalLabelPosition=bottom;verticalAlign=top;dashed=0;" vertex="1" parent="0xlNtEbpLMMX_KmN14da-96">
          <mxGeometry x="191.00229357798167" y="19.8125" width="22.477064220183486" height="53.4375" as="geometry"/>
        </mxCell>
        <mxCell id="0xlNtEbpLMMX_KmN14da-61" value="" style="verticalLabelPosition=bottom;align=center;dashed=0;html=1;verticalAlign=top;shape=mxgraph.pid.filters.press_filter;rotation=0;" vertex="1" parent="0xlNtEbpLMMX_KmN14da-96">
          <mxGeometry x="106.7178899082569" y="25" width="17" height="15" as="geometry"/>
        </mxCell>
        <mxCell id="0xlNtEbpLMMX_KmN14da-78" style="edgeStyle=orthogonalEdgeStyle;rounded=0;orthogonalLoop=1;jettySize=auto;html=1;exitX=0.5;exitY=1;exitDx=0;exitDy=0;exitPerimeter=0;entryX=0.502;entryY=-0.102;entryDx=0;entryDy=0;entryPerimeter=0;" edge="1" parent="0xlNtEbpLMMX_KmN14da-96" source="0xlNtEbpLMMX_KmN14da-57" target="0xlNtEbpLMMX_KmN14da-61">
          <mxGeometry relative="1" as="geometry">
            <Array as="points">
              <mxPoint x="158.7178899082569" y="80"/>
              <mxPoint x="139.7178899082569" y="80"/>
              <mxPoint x="139.7178899082569"/>
              <mxPoint x="115.7178899082569"/>
            </Array>
          </mxGeometry>
        </mxCell>
        <mxCell id="0xlNtEbpLMMX_KmN14da-62" value="" style="verticalLabelPosition=bottom;align=center;dashed=0;html=1;verticalAlign=top;shape=mxgraph.pid.filters.liquid_Filter_(bag,_candle,_cartridge);rotation=-90;" vertex="1" parent="0xlNtEbpLMMX_KmN14da-96">
          <mxGeometry x="108.29816513761469" y="67.5" width="13.486238532110093" height="5.625" as="geometry"/>
        </mxCell>
        <mxCell id="0xlNtEbpLMMX_KmN14da-88" style="edgeStyle=orthogonalEdgeStyle;rounded=0;orthogonalLoop=1;jettySize=auto;html=1;entryX=1;entryY=0.5;entryDx=0;entryDy=0;" edge="1" parent="0xlNtEbpLMMX_KmN14da-96" source="0xlNtEbpLMMX_KmN14da-61" target="0xlNtEbpLMMX_KmN14da-62">
          <mxGeometry relative="1" as="geometry"/>
        </mxCell>
        <mxCell id="0xlNtEbpLMMX_KmN14da-90" style="edgeStyle=orthogonalEdgeStyle;rounded=0;orthogonalLoop=1;jettySize=auto;html=1;exitX=0;exitY=0.5;exitDx=0;exitDy=0;exitPerimeter=0;entryX=0.544;entryY=-0.032;entryDx=0;entryDy=0;entryPerimeter=0;" edge="1" parent="0xlNtEbpLMMX_KmN14da-96" source="0xlNtEbpLMMX_KmN14da-65" target="0xlNtEbpLMMX_KmN14da-54">
          <mxGeometry relative="1" as="geometry">
            <Array as="points">
              <mxPoint x="85.7178899082569"/>
              <mxPoint x="51.71788990825689"/>
            </Array>
          </mxGeometry>
        </mxCell>
        <mxCell id="0xlNtEbpLMMX_KmN14da-65" value="" style="verticalLabelPosition=bottom;align=center;dashed=0;html=1;verticalAlign=top;shape=mxgraph.pid.piping.cone_strainer;rotation=90;" vertex="1" parent="0xlNtEbpLMMX_KmN14da-96">
          <mxGeometry x="79.83256880733947" y="34.25" width="11.238532110091743" height="11.25" as="geometry"/>
        </mxCell>
        <mxCell id="0xlNtEbpLMMX_KmN14da-89" style="edgeStyle=orthogonalEdgeStyle;rounded=0;orthogonalLoop=1;jettySize=auto;html=1;entryX=1;entryY=0.5;entryDx=0;entryDy=0;entryPerimeter=0;" edge="1" parent="0xlNtEbpLMMX_KmN14da-96" source="0xlNtEbpLMMX_KmN14da-62" target="0xlNtEbpLMMX_KmN14da-65">
          <mxGeometry relative="1" as="geometry"/>
        </mxCell>
        <mxCell id="0xlNtEbpLMMX_KmN14da-98" value="" style="endArrow=classic;html=1;entryX=0.5;entryY=0;entryDx=0;entryDy=0;entryPerimeter=0;" edge="1" parent="1" target="0xlNtEbpLMMX_KmN14da-58">
          <mxGeometry width="50" height="50" relative="1" as="geometry">
            <mxPoint x="386" y="610" as="sourcePoint"/>
            <mxPoint x="407" y="650.5" as="targetPoint"/>
            <Array as="points">
              <mxPoint x="262" y="610"/>
            </Array>
          </mxGeometry>
        </mxCell>
        <mxCell id="0xlNtEbpLMMX_KmN14da-99" value="Row water" style="text;html=1;resizable=0;points=[];autosize=1;align=left;verticalAlign=top;spacingTop=-4;" vertex="1" parent="1">
          <mxGeometry x="312" y="614" width="70" height="20" as="geometry"/>
        </mxCell>
        <mxCell id="0xlNtEbpLMMX_KmN14da-108" style="edgeStyle=orthogonalEdgeStyle;rounded=0;orthogonalLoop=1;jettySize=auto;html=1;" edge="1" parent="1" source="0xlNtEbpLMMX_KmN14da-103">
          <mxGeometry relative="1" as="geometry">
            <mxPoint x="175.82758620689663" y="503.79310344827593" as="targetPoint"/>
          </mxGeometry>
        </mxCell>
        <mxCell id="0xlNtEbpLMMX_KmN14da-103" value="" style="shape=mxgraph.pid.vessels.tank;html=1;pointerEvents=1;align=center;verticalLabelPosition=bottom;verticalAlign=top;dashed=0;" vertex="1" parent="1">
          <mxGeometry x="164.33027522935777" y="410.53125" width="22.477064220183486" height="53.4375" as="geometry"/>
        </mxCell>
        <mxCell id="0xlNtEbpLMMX_KmN14da-104" style="edgeStyle=orthogonalEdgeStyle;rounded=0;orthogonalLoop=1;jettySize=auto;html=1;exitX=0.5;exitY=1;exitDx=0;exitDy=0;exitPerimeter=0;entryX=0.5;entryY=0;entryDx=0;entryDy=0;entryPerimeter=0;" edge="1" parent="1" source="0xlNtEbpLMMX_KmN14da-105" target="0xlNtEbpLMMX_KmN14da-103">
          <mxGeometry relative="1" as="geometry">
            <Array as="points">
              <mxPoint x="220" y="470.5"/>
              <mxPoint x="197" y="470.5"/>
              <mxPoint x="197" y="390.5"/>
              <mxPoint x="176" y="390.5"/>
            </Array>
          </mxGeometry>
        </mxCell>
        <mxCell id="0xlNtEbpLMMX_KmN14da-105" value="" style="shape=mxgraph.pid.vessels.tank;html=1;pointerEvents=1;align=center;verticalLabelPosition=bottom;verticalAlign=top;dashed=0;" vertex="1" parent="1">
          <mxGeometry x="208.28440366972478" y="410.3125" width="22.477064220183486" height="53.4375" as="geometry"/>
        </mxCell>
        <mxCell id="0xlNtEbpLMMX_KmN14da-106" value="" style="endArrow=classic;html=1;entryX=0.5;entryY=0;entryDx=0;entryDy=0;entryPerimeter=0;" edge="1" parent="1" target="0xlNtEbpLMMX_KmN14da-105">
          <mxGeometry width="50" height="50" relative="1" as="geometry">
            <mxPoint x="260" y="505" as="sourcePoint"/>
            <mxPoint x="364.5" y="430.5" as="targetPoint"/>
            <Array as="points">
              <mxPoint x="260" y="390"/>
              <mxPoint x="219.5" y="390"/>
            </Array>
          </mxGeometry>
        </mxCell>
        <mxCell id="0xlNtEbpLMMX_KmN14da-110" style="edgeStyle=orthogonalEdgeStyle;rounded=0;orthogonalLoop=1;jettySize=auto;html=1;exitX=0.5;exitY=1;exitDx=0;exitDy=0;exitPerimeter=0;" edge="1" parent="1" source="0xlNtEbpLMMX_KmN14da-53">
          <mxGeometry relative="1" as="geometry">
            <mxPoint x="44.79310344827593" y="507.9310344827586" as="targetPoint"/>
            <Array as="points">
              <mxPoint x="71" y="690"/>
              <mxPoint x="45" y="690"/>
            </Array>
          </mxGeometry>
        </mxCell>
        <mxCell id="0xlNtEbpLMMX_KmN14da-111" value="Condensate treatment" style="text;html=1;resizable=0;points=[];autosize=1;align=left;verticalAlign=top;spacingTop=-4;" vertex="1" parent="1">
          <mxGeometry x="154.5" y="360" width="130" height="20" as="geometry"/>
        </mxCell>
      </root>
    </mxGraphModel>
  </diagram>
</mxfile>
